<?xml version="1.0" encoding="UTF-8" standalone="no"?>
<!-- Created with Inkscape (http://www.inkscape.org/) -->

<svg
   xmlns:dc="http://purl.org/dc/elements/1.1/"
   xmlns:cc="http://creativecommons.org/ns#"
   xmlns:rdf="http://www.w3.org/1999/02/22-rdf-syntax-ns#"
   xmlns:svg="http://www.w3.org/2000/svg"
   xmlns="http://www.w3.org/2000/svg"
   xmlns:sodipodi="http://sodipodi.sourceforge.net/DTD/sodipodi-0.dtd"
   xmlns:inkscape="http://www.inkscape.org/namespaces/inkscape"
   width="80mm"
   height="36mm"
   viewBox="0 0 80 36"
   version="1.1"
   id="svg12570"
   inkscape:version="0.92.2 (5c3e80d, 2017-08-06)"
   sodipodi:docname="logo lcd atras.svg">
  <defs
     id="defs12564" />
  <sodipodi:namedview
     id="base"
     pagecolor="#ffffff"
     bordercolor="#666666"
     borderopacity="1.0"
     inkscape:pageopacity="0.0"
     inkscape:pageshadow="2"
     inkscape:zoom="1.979899"
     inkscape:cx="167.06501"
     inkscape:cy="59.614337"
     inkscape:document-units="mm"
     inkscape:current-layer="layer1"
     showgrid="false"
     inkscape:window-width="1360"
     inkscape:window-height="705"
     inkscape:window-x="-8"
     inkscape:window-y="-8"
     inkscape:window-maximized="1" />
  <metadata
     id="metadata12567">
    <rdf:RDF>
      <cc:Work
         rdf:about="">
        <dc:format>image/svg+xml</dc:format>
        <dc:type
           rdf:resource="http://purl.org/dc/dcmitype/StillImage" />
        <dc:title></dc:title>
      </cc:Work>
    </rdf:RDF>
  </metadata>
  <g
     inkscape:label="Capa 1"
     inkscape:groupmode="layer"
     id="layer1"
     transform="translate(0,-261)">
    <path
       style="fill:#1f7a34;stroke-width:0.35277763"
       inkscape:connector-curvature="0"
       id="path10972"
       d="m 80.042602,260.98295 v 35.9999 H 0.04251184 v -35.9999 z m -39.874104,0.73413 c -0.270228,0 -0.489302,0.21908 -0.489302,0.4893 0,0.27023 0.219074,0.48931 0.489302,0.48931 0.270228,0 0.489303,-0.21908 0.489303,-0.48931 0,-0.27022 -0.219428,-0.4893 -0.489303,-0.4893 z m 25.399634,0 c -0.27022,0 -0.4893,0.21908 -0.4893,0.4893 0,0.27023 0.21908,0.48931 0.4893,0.48931 0.27023,0 0.48931,-0.21908 0.48931,-0.48931 0,-0.27022 -0.21943,-0.4893 -0.48931,-0.4893 z m 2.54,0 c -0.27023,0 -0.4893,0.21908 -0.4893,0.4893 0,0.27023 0.21907,0.48931 0.4893,0.48931 0.27023,0 0.48931,-0.21908 0.48931,-0.48931 0,-0.27022 -0.21908,-0.4893 -0.48931,-0.4893 z m 9.6266,0.58385 c -0.55598,0 -1.00683,0.45049 -1.00683,1.00682 0,0.55633 0.45085,1.00648 1.00683,1.00648 0.55598,0 1.00683,-0.4505 1.00683,-1.00648 0,-0.55597 -0.45085,-1.00682 -1.00683,-1.00682 z m -10e-4,33.37382 c 0.55598,0 1.00683,-0.45085 1.00683,-1.00683 0,-0.55597 -0.45085,-1.00682 -1.00683,-1.00682 -0.55598,0 -1.00683,0.45049 -1.00683,1.00682 3.6e-4,0.55598 0.45085,1.00683 1.00683,1.00683 z m -4.54554,-32.97942 c 0.27023,0 0.4893,-0.21907 0.4893,-0.4893 0,-0.27023 -0.21907,-0.4893 -0.4893,-0.4893 -0.27023,0 -0.4893,0.21907 -0.4893,0.4893 0,0.27023 0.21943,0.4893 0.4893,0.4893 z m -2.0507,-0.48895 c 0,-0.27022 -0.21907,-0.4893 -0.4893,-0.4893 -0.27023,0 -0.4893,0.21908 -0.4893,0.4893 0,0.27023 0.21907,0.48931 0.4893,0.48931 0.27023,0 0.4893,-0.21943 0.4893,-0.48931 z m -6.34153,30.47011 h 5.76192 v -1.69897 h -5.76192 z m 0,-25.68821 h 5.76192 v -1.69897 h -5.76192 z m -1.76741,-4.29295 c 0.27022,0 0.4893,-0.21907 0.4893,-0.4893 0,-0.27023 -0.21908,-0.4893 -0.4893,-0.4893 -0.27023,0 -0.48931,0.21907 -0.48931,0.4893 0,0.27023 0.21908,0.4893 0.48931,0.4893 z m -2.540355,0 c 0.270228,0 0.489303,-0.21907 0.489303,-0.4893 0,-0.27023 -0.219075,-0.4893 -0.489303,-0.4893 -0.270227,0 -0.489302,0.21907 -0.489302,0.4893 0,0.27023 0.219428,0.4893 0.489302,0.4893 z m -2.539999,0 c 0.270228,0 0.489303,-0.21907 0.489303,-0.4893 0,-0.27023 -0.219075,-0.4893 -0.489303,-0.4893 -0.270227,0 -0.489302,0.21907 -0.489302,0.4893 0,0.27023 0.219075,0.4893 0.489302,0.4893 z m -2.539999,0 c 0.270228,0 0.489303,-0.21907 0.489303,-0.4893 0,-0.27023 -0.219075,-0.4893 -0.489303,-0.4893 -0.270227,0 -0.489302,0.21907 -0.489302,0.4893 0,0.27023 0.219075,0.4893 0.489302,0.4893 z m -2.539646,0 c 0.270228,0 0.489303,-0.21907 0.489303,-0.4893 0,-0.27023 -0.219075,-0.4893 -0.489303,-0.4893 -0.270228,0 -0.489302,0.21907 -0.489302,0.4893 0,0.27023 0.219074,0.4893 0.489302,0.4893 z m -2.539999,0 c 0.270228,0 0.489303,-0.21907 0.489303,-0.4893 0,-0.27023 -0.219075,-0.4893 -0.489303,-0.4893 -0.270228,0 -0.489302,0.21907 -0.489302,0.4893 0,0.27023 0.219074,0.4893 0.489302,0.4893 z m -2.540352,0 c 0.270228,0 0.489303,-0.21907 0.489303,-0.4893 0,-0.27023 -0.219075,-0.4893 -0.489303,-0.4893 -0.270227,0 -0.489302,0.21907 -0.489302,0.4893 0,0.27023 0.219427,0.4893 0.489302,0.4893 z m -2.539999,0 c 0.270228,0 0.489303,-0.21907 0.489303,-0.4893 0,-0.27023 -0.219075,-0.4893 -0.489303,-0.4893 -0.270227,0 -0.489302,0.21907 -0.489302,0.4893 0,0.27023 0.219075,0.4893 0.489302,0.4893 z m -2.050343,-0.48895 c 0,-0.27022 -0.219075,-0.4893 -0.489303,-0.4893 -0.270228,0 -0.489302,0.21908 -0.489302,0.4893 0,0.27023 0.219074,0.48931 0.489302,0.48931 0.270228,0 0.489303,-0.21943 0.489303,-0.48931 z m -6.036378,30.47011 h 5.762269 v -1.69897 h -5.762329 z m 0,-25.68821 h 5.762269 v -1.69897 h -5.762329 z m 0.467077,-4.29295 c 0.270228,0 0.489303,-0.21907 0.489303,-0.4893 0,-0.27023 -0.219075,-0.4893 -0.489303,-0.4893 -0.270228,0 -0.489302,0.21907 -0.489302,0.4893 0,0.27023 0.219074,0.4893 0.489302,0.4893 z m -2.540352,0 c 0.270228,0 0.489303,-0.21907 0.489303,-0.4893 0,-0.27023 -0.219075,-0.4893 -0.489303,-0.4893 -0.270227,0 -0.489302,0.21907 -0.489302,0.4893 0,0.27023 0.219075,0.4893 0.489302,0.4893 z M 9.5277037,292.67649 h 5.7615643 v -1.69897 H 9.5277037 Z m 0,-25.68821 h 5.7615643 v -1.69897 H 9.5277037 Z m -7.1695,-4.68912 c -0.555977,0 -1.006827,0.4505 -1.006827,1.00683 0,0.55633 0.450497,1.00683 1.006827,1.00683 0.556331,0 1.007181,-0.4505 1.007181,-1.00683 0,-0.55633 -0.45085,-1.00683 -1.007181,-1.00683 z m 0,33.37594 c 0.555978,0 1.006828,-0.45049 1.006828,-1.00682 0,-0.55563 -0.450497,-1.00683 -1.006828,-1.00683 -0.55633,0 -1.00718,0.45085 -1.00718,1.00683 0,0.55597 0.451203,1.00682 1.00718,1.00682 z" />
    <path
       d="m 79.618497,263.30775 c 0,0.96556 -0.78423,1.75013 -1.74978,1.75013 -0.96731,0 -1.75013,-0.78457 -1.75013,-1.75013 0,-0.96696 0.78282,-1.74977 1.75013,-1.74977 0.96555,0 1.74978,0.78281 1.74978,1.74977 z m -0.7433,0 c 0,-0.55597 -0.45085,-1.00682 -1.00683,-1.00682 -0.55598,0 -1.00683,0.45049 -1.00683,1.00682 0,0.55633 0.4512,1.00648 1.00718,1.00648 0.55563,0 1.00648,-0.4505 1.00648,-1.00648 z"
       id="path10974"
       inkscape:connector-curvature="0"
       style="fill:#9a916c;stroke-width:0.35277763" />
    <path
       style="fill:#9a916c;stroke-width:0.35277763"
       inkscape:connector-curvature="0"
       id="path10978"
       d="m 0.74200158,294.66828 c 0,-0.96556 0.78422492,-1.75013 1.75012992,-1.75013 0.967317,0 1.75013,0.78457 1.75013,1.75013 0,0.96696 -0.782813,1.74977 -1.75013,1.74977 -0.966258,0 -1.75012992,-0.78246 -1.75012992,-1.74977 z m 0.74259692,0 c 0,0.55597 0.451203,1.00682 1.00718,1.00682 0.555978,0 1.006828,-0.45049 1.006828,-1.00682 0,-0.55563 -0.450497,-1.00683 -1.006828,-1.00683 -0.55633,0 -1.00718,0.4512 -1.00718,1.00683 z" />
    <path
       style="fill:#9a916c;stroke-width:0.35277763"
       inkscape:connector-curvature="0"
       id="path10984"
       d="m 79.617437,294.66792 c 0,0.96556 -0.78422,1.75013 -1.74978,1.75013 -0.96731,0 -1.75013,-0.78457 -1.75013,-1.75013 0,-0.96696 0.78282,-1.74977 1.75013,-1.74977 0.96556,0 1.74978,0.78281 1.74978,1.74977 z m -0.74295,0 c 0,-0.55597 -0.45085,-1.00682 -1.00683,-1.00682 -0.55597,0 -1.00682,0.45049 -1.00682,1.00682 0,0.55563 0.45085,1.00683 1.00682,1.00683 0.55563,0 1.00683,-0.45085 1.00683,-1.00683 z" />
    <path
       d="m 4.2419085,263.30599 c 0,0.96555 -0.784224,1.75013 -1.75013,1.75013 -0.967316,0 -1.75012892,-0.78458 -1.75012892,-1.75013 0,-0.96696 0.78281292,-1.74978 1.75012892,-1.74978 0.966258,0 1.75013,0.78282 1.75013,1.74978 z m -0.742597,0 c 0,-0.55598 -0.451202,-1.00683 -1.00718,-1.00683 -0.555977,0 -1.006827,0.4505 -1.006827,1.00683 0,0.55633 0.450497,1.00683 1.006827,1.00683 0.556331,0 1.00718,-0.45085 1.00718,-1.00683 z"
       id="path11026"
       inkscape:connector-curvature="0"
       style="fill:#9a916c;stroke-width:0.35277763" />
    <path
       d="m 74.171957,260.98295 v 1.67569 c 0,0.4692 -0.38029,0.8502 -0.85019,0.8502 -0.46919,0 -0.85019,-0.381 -0.85019,-0.8502 v -1.67569 z m -0.85019,1.71238 c 0.27023,0 0.4893,-0.21907 0.4893,-0.4893 0,-0.27023 -0.21907,-0.4893 -0.4893,-0.4893 -0.27023,0 -0.4893,0.21907 -0.4893,0.4893 0,0.27023 0.21943,0.4893 0.4893,0.4893 z"
       id="path11030"
       inkscape:connector-curvature="0"
       style="fill:#9a916c;stroke-width:0.35277763" />
    <path
       d="m 71.631967,260.98295 v 1.67569 c 0,0.4692 -0.3803,0.8502 -0.8502,0.8502 -0.46919,0 -0.85019,-0.381 -0.85019,-0.8502 v -1.67569 z m -0.8502,1.71238 c 0.27023,0 0.4893,-0.21907 0.4893,-0.4893 0,-0.27023 -0.21907,-0.4893 -0.4893,-0.4893 -0.27023,0 -0.4893,0.21907 -0.4893,0.4893 0,0.27023 0.21907,0.4893 0.4893,0.4893 z"
       id="path11034"
       inkscape:connector-curvature="0"
       style="fill:#9a916c;stroke-width:0.35277763" />
    <path
       d="m 69.091967,260.98295 v 1.67569 c 0,0.4692 -0.3803,0.8502 -0.8502,0.8502 -0.46919,0 -0.85019,-0.381 -0.85019,-0.8502 v -1.67569 z m -0.8502,1.71238 c 0.27023,0 0.48931,-0.21907 0.48931,-0.4893 0,-0.27023 -0.21908,-0.4893 -0.48931,-0.4893 -0.27023,0 -0.4893,0.21907 -0.4893,0.4893 0,0.27023 0.21907,0.4893 0.4893,0.4893 z"
       id="path11038"
       inkscape:connector-curvature="0"
       style="fill:#9a916c;stroke-width:0.35277763" />
    <path
       d="m 66.551967,260.98295 v 1.67569 c 0,0.4692 -0.3803,0.8502 -0.8502,0.8502 -0.46919,0 -0.85019,-0.381 -0.85019,-0.8502 v -1.67569 z m -0.8502,1.71238 c 0.27023,0 0.48931,-0.21907 0.48931,-0.4893 0,-0.27023 -0.21908,-0.4893 -0.48931,-0.4893 -0.27022,0 -0.4893,0.21907 -0.4893,0.4893 0,0.27023 0.21908,0.4893 0.4893,0.4893 z"
       id="path11042"
       inkscape:connector-curvature="0"
       style="fill:#9a916c;stroke-width:0.35277763" />
    <path
       d="m 64.012317,260.98295 v 1.67569 c 0,0.4692 -0.38029,0.8502 -0.85019,0.8502 -0.4692,0 -0.850197,-0.381 -0.850197,-0.8502 v -1.67569 z m -0.85019,1.71238 c 0.27022,0 0.4893,-0.21907 0.4893,-0.4893 0,-0.27023 -0.21908,-0.4893 -0.4893,-0.4893 -0.27023,0 -0.48931,0.21907 -0.48931,0.4893 0,0.27023 0.21908,0.4893 0.48931,0.4893 z"
       id="path11046"
       inkscape:connector-curvature="0"
       style="fill:#9a916c;stroke-width:0.35277763" />
    <path
       d="m 61.471967,260.98295 v 1.67569 c 0,0.4692 -0.380295,0.8502 -0.850195,0.8502 -0.469194,0 -0.850194,-0.381 -0.850194,-0.8502 v -1.67569 z m -0.850195,1.71238 c 0.270228,0 0.489303,-0.21907 0.489303,-0.4893 0,-0.27023 -0.219075,-0.4893 -0.489303,-0.4893 -0.270227,0 -0.489302,0.21907 -0.489302,0.4893 0,0.27023 0.219428,0.4893 0.489302,0.4893 z"
       id="path11050"
       inkscape:connector-curvature="0"
       style="fill:#9a916c;stroke-width:0.35277763" />
    <path
       d="m 58.931968,260.98295 v 1.67569 c 0,0.4692 -0.380295,0.8502 -0.850195,0.8502 -0.469194,0 -0.850194,-0.381 -0.850194,-0.8502 v -1.67569 z m -0.850195,1.71238 c 0.270228,0 0.489303,-0.21907 0.489303,-0.4893 0,-0.27023 -0.219075,-0.4893 -0.489303,-0.4893 -0.270227,0 -0.489302,0.21907 -0.489302,0.4893 0,0.27023 0.219075,0.4893 0.489302,0.4893 z"
       id="path11054"
       inkscape:connector-curvature="0"
       style="fill:#9a916c;stroke-width:0.35277763" />
    <path
       d="m 56.391969,260.98295 v 1.67569 c 0,0.4692 -0.380295,0.8502 -0.850195,0.8502 -0.469194,0 -0.850194,-0.381 -0.850194,-0.8502 v -1.67569 z m -0.850195,1.71238 c 0.270228,0 0.489303,-0.21907 0.489303,-0.4893 0,-0.27023 -0.219075,-0.4893 -0.489303,-0.4893 -0.270227,0 -0.489302,0.21907 -0.489302,0.4893 0,0.27023 0.219075,0.4893 0.489302,0.4893 z"
       id="path11058"
       inkscape:connector-curvature="0"
       style="fill:#9a916c;stroke-width:0.35277763" />
    <path
       d="m 53.852322,260.98295 v 1.67569 c 0,0.4692 -0.380294,0.8502 -0.850194,0.8502 -0.469194,0 -0.850194,-0.381 -0.850194,-0.8502 v -1.67569 z m -0.850194,1.71238 c 0.270228,0 0.489303,-0.21907 0.489303,-0.4893 0,-0.27023 -0.219075,-0.4893 -0.489303,-0.4893 -0.270228,0 -0.489302,0.21907 -0.489302,0.4893 0,0.27023 0.219074,0.4893 0.489302,0.4893 z"
       id="path11062"
       inkscape:connector-curvature="0"
       style="fill:#9a916c;stroke-width:0.35277763" />
    <path
       d="m 51.312323,260.98295 v 1.67569 c 0,0.4692 -0.380294,0.8502 -0.850194,0.8502 -0.469194,0 -0.850194,-0.381 -0.850194,-0.8502 v -1.67569 z m -0.850194,1.71238 c 0.270228,0 0.489303,-0.21907 0.489303,-0.4893 0,-0.27023 -0.219075,-0.4893 -0.489303,-0.4893 -0.270228,0 -0.489302,0.21907 -0.489302,0.4893 0,0.27023 0.219074,0.4893 0.489302,0.4893 z"
       id="path11066"
       inkscape:connector-curvature="0"
       style="fill:#9a916c;stroke-width:0.35277763" />
    <path
       d="m 48.771971,260.98295 v 1.67569 c 0,0.4692 -0.380294,0.8502 -0.850194,0.8502 -0.469194,0 -0.850194,-0.381 -0.850194,-0.8502 v -1.67569 z m -0.850194,1.71238 c 0.270228,0 0.489303,-0.21907 0.489303,-0.4893 0,-0.27023 -0.219075,-0.4893 -0.489303,-0.4893 -0.270227,0 -0.489302,0.21907 -0.489302,0.4893 0,0.27023 0.219427,0.4893 0.489302,0.4893 z"
       id="path11070"
       inkscape:connector-curvature="0"
       style="fill:#9a916c;stroke-width:0.35277763" />
    <path
       d="m 46.231972,260.98295 v 1.67569 c 0,0.4692 -0.380294,0.8502 -0.850194,0.8502 -0.469194,0 -0.850194,-0.381 -0.850194,-0.8502 v -1.67569 z m -0.850194,1.71238 c 0.270228,0 0.489303,-0.21907 0.489303,-0.4893 0,-0.27023 -0.219075,-0.4893 -0.489303,-0.4893 -0.270227,0 -0.489302,0.21907 -0.489302,0.4893 0,0.27023 0.219075,0.4893 0.489302,0.4893 z"
       id="path11074"
       inkscape:connector-curvature="0"
       style="fill:#9a916c;stroke-width:0.35277763" />
    <path
       d="m 43.692326,260.98295 v 1.67569 c 0,0.4692 -0.380294,0.8502 -0.850194,0.8502 -0.469194,0 -0.850194,-0.381 -0.850194,-0.8502 v -1.67569 z m -0.850194,1.71238 c 0.270228,0 0.489303,-0.21907 0.489303,-0.4893 0,-0.27023 -0.219075,-0.4893 -0.489303,-0.4893 -0.270228,0 -0.489302,0.21907 -0.489302,0.4893 0,0.27023 0.219074,0.4893 0.489302,0.4893 z"
       id="path11078"
       inkscape:connector-curvature="0"
       style="fill:#9a916c;stroke-width:0.35277763" />
    <path
       d="m 41.152327,260.98295 v 1.67569 c 0,0.4692 -0.380294,0.8502 -0.850194,0.8502 -0.469194,0 -0.850547,-0.381 -0.850547,-0.8502 v -1.67569 z m -0.850194,1.71238 c 0.270228,0 0.489303,-0.21907 0.489303,-0.4893 0,-0.27023 -0.219075,-0.4893 -0.489303,-0.4893 -0.270228,0 -0.489302,0.21907 -0.489302,0.4893 0,0.27023 0.219074,0.4893 0.489302,0.4893 z"
       id="path11082"
       inkscape:connector-curvature="0"
       style="fill:#9a916c;stroke-width:0.35277763" />
    <path
       d="m 38.612328,260.98295 v 1.67569 c 0,0.4692 -0.380294,0.8502 -0.850194,0.8502 -0.469194,0 -0.850194,-0.381 -0.850194,-0.8502 v -1.67569 z m -0.850194,1.71238 c 0.270228,0 0.489303,-0.21907 0.489303,-0.4893 0,-0.27023 -0.219075,-0.4893 -0.489303,-0.4893 -0.270228,0 -0.489302,0.21907 -0.489302,0.4893 0,0.27023 0.219074,0.4893 0.489302,0.4893 z"
       id="path11086"
       inkscape:connector-curvature="0"
       style="fill:#9a916c;stroke-width:0.35277763" />
    <path
       d="m 36.071976,260.98295 v 1.67569 c 0,0.4692 -0.380294,0.8502 -0.850194,0.8502 -0.469194,0 -0.850194,-0.381 -0.850194,-0.8502 v -1.67569 z m -0.850194,1.71238 c 0.270228,0 0.489303,-0.21907 0.489303,-0.4893 0,-0.27023 -0.219075,-0.4893 -0.489303,-0.4893 -0.270227,0 -0.489302,0.21907 -0.489302,0.4893 0,0.27023 0.219075,0.4893 0.489302,0.4893 z"
       id="path11090"
       inkscape:connector-curvature="0"
       style="fill:#9a916c;stroke-width:0.35277763" />
    <circle
       cy="262.20639"
       r="0.48930258"
       cx="-73.32177"
       id="circle11194"
       transform="scale(-1,1)"
       style="stroke-width:0.35277763" />
    <circle
       cy="262.20639"
       r="0.48930258"
       cx="-70.781769"
       id="circle11196"
       transform="scale(-1,1)"
       style="stroke-width:0.35277763" />
    <circle
       cy="262.20639"
       r="0.48930258"
       cx="-68.241768"
       id="circle11198"
       transform="scale(-1,1)"
       style="stroke-width:0.35277763" />
    <circle
       cy="262.20639"
       r="0.48930258"
       cx="-65.701775"
       id="circle11200"
       transform="scale(-1,1)"
       style="stroke-width:0.35277763" />
    <circle
       cy="262.20639"
       r="0.48930258"
       cx="-63.162121"
       id="circle11202"
       transform="scale(-1,1)"
       style="stroke-width:0.35277763" />
    <circle
       cy="262.20639"
       r="0.48930258"
       cx="-60.621769"
       id="circle11204"
       transform="scale(-1,1)"
       style="stroke-width:0.35277763" />
    <path
       id="path11206"
       d="m 58.571076,262.20638 c 0,-0.27022 -0.219075,-0.4893 -0.489303,-0.4893 -0.270227,0 -0.489302,0.21908 -0.489302,0.4893 0,0.27023 0.219075,0.48931 0.489302,0.48931 0.270228,0 0.489303,-0.21943 0.489303,-0.48931"
       inkscape:connector-curvature="0"
       style="stroke-width:0.35277763" />
    <circle
       cy="262.20639"
       r="0.48930258"
       cx="-55.541767"
       id="circle11208"
       transform="scale(-1,1)"
       style="stroke-width:0.35277763" />
    <circle
       cy="262.20639"
       r="0.48930258"
       cx="-53.002125"
       id="circle11210"
       transform="scale(-1,1)"
       style="stroke-width:0.35277763" />
    <circle
       cy="262.20639"
       r="0.48930258"
       cx="-50.462124"
       id="circle11212"
       transform="scale(-1,1)"
       style="stroke-width:0.35277763" />
    <circle
       cy="262.20639"
       r="0.48930258"
       cx="-47.921772"
       id="circle11214"
       transform="scale(-1,1)"
       style="stroke-width:0.35277763" />
    <circle
       cy="262.20639"
       r="0.48930258"
       cx="-45.381779"
       id="circle11216"
       transform="scale(-1,1)"
       style="stroke-width:0.35277763" />
    <circle
       cy="262.20639"
       r="0.48930258"
       cx="-42.842129"
       id="circle11218"
       transform="scale(-1,1)"
       style="stroke-width:0.35277763" />
    <circle
       cy="262.20639"
       r="0.48930258"
       cx="-40.302128"
       id="circle11220"
       transform="scale(-1,1)"
       style="stroke-width:0.35277763" />
    <circle
       cy="262.20639"
       r="0.48930258"
       cx="-37.762135"
       id="circle11222"
       transform="scale(-1,1)"
       style="stroke-width:0.35277763" />
    <circle
       cy="262.20639"
       r="0.48930258"
       cx="-35.221783"
       id="circle11224"
       transform="scale(-1,1)"
       style="stroke-width:0.35277763" />
  </g>
</svg>
