<?xml version="1.0" encoding="UTF-8" standalone="no"?>
<!-- Created with Inkscape (http://www.inkscape.org/) -->

<svg
   xmlns:dc="http://purl.org/dc/elements/1.1/"
   xmlns:cc="http://creativecommons.org/ns#"
   xmlns:rdf="http://www.w3.org/1999/02/22-rdf-syntax-ns#"
   xmlns:svg="http://www.w3.org/2000/svg"
   xmlns="http://www.w3.org/2000/svg"
   xmlns:sodipodi="http://sodipodi.sourceforge.net/DTD/sodipodi-0.dtd"
   xmlns:inkscape="http://www.inkscape.org/namespaces/inkscape"
   version="1.1"
   id="svg382"
   xml:space="preserve"
   width="243.74933"
   height="496"
   viewBox="0 0 243.74933 496"
   sodipodi:docname="motoreductor.svg"
   inkscape:version="0.92.2 (5c3e80d, 2017-08-06)"><metadata
     id="metadata388"><rdf:RDF><cc:Work
         rdf:about=""><dc:format>image/svg+xml</dc:format><dc:type
           rdf:resource="http://purl.org/dc/dcmitype/StillImage" /><dc:title></dc:title></cc:Work></rdf:RDF></metadata><defs
     id="defs386"><clipPath
       clipPathUnits="userSpaceOnUse"
       id="clipPath402"><path
         d="M 0,372 H 182.812 V 0 H 0 Z"
         id="path400"
         inkscape:connector-curvature="0" /></clipPath></defs><sodipodi:namedview
     pagecolor="#ffffff"
     bordercolor="#666666"
     borderopacity="1"
     objecttolerance="10"
     gridtolerance="10"
     guidetolerance="10"
     inkscape:pageopacity="0"
     inkscape:pageshadow="2"
     inkscape:window-width="1920"
     inkscape:window-height="1017"
     id="namedview384"
     showgrid="false"
     showguides="true"
     inkscape:guide-bbox="true"
     inkscape:snap-page="true"
     inkscape:zoom="1.3457839"
     inkscape:cx="91.705393"
     inkscape:cy="285.14274"
     inkscape:window-x="-8"
     inkscape:window-y="-8"
     inkscape:window-maximized="1"
     inkscape:current-layer="g396" /><g
     id="g390"
     inkscape:groupmode="layer"
     inkscape:label="motoreductor"
     transform="matrix(1.3333333,0,0,-1.3333333,0,496)"><g
       id="g392"
       transform="translate(131.7499,308.3228)"><path
         d="M 0,0 V -19.625"
         style="fill:none;stroke:#231e1e;stroke-width:2.55100012;stroke-linecap:round;stroke-linejoin:miter;stroke-miterlimit:10;stroke-dasharray:none;stroke-opacity:1"
         id="path394"
         inkscape:connector-curvature="0" /></g><g
       id="g396"><g
         id="g398"
         clip-path="url(#clipPath402)"><g
           id="g404"
           transform="translate(130.5053,280.5874)"><path
             d="m 0,0 -0.042,9.527 h 12.031 c 0.557,-0.869 0.767,-1.106 1.028,-1.713 1.954,0 2.894,-0.133 2.894,-0.133 C 16.69,7.243 17.147,6.167 17.302,4.496 17.203,2.625 16.738,1.598 15.896,1.439 l -2.875,-0.115 -1.02,-1.422 z"
             style="fill:#231e1e;fill-opacity:1;fill-rule:nonzero;stroke:none"
             id="path406"
             inkscape:connector-curvature="0" /></g><g
           id="g408"
           transform="translate(150.0053,283.604)"><path
             d="m 0,0 h -2.469 c -0.63,0 -1.14,0.511 -1.14,1.141 v 0.687 c 0,0.63 0.51,1.141 1.14,1.141 H 0 c 0.63,0 1.141,-0.511 1.141,-1.141 V 1.141 C 1.141,0.511 0.63,0 0,0"
             style="fill:#8a8b8b;fill-opacity:1;fill-rule:nonzero;stroke:none"
             id="path410"
             inkscape:connector-curvature="0" /></g><g
           id="g412"
           transform="translate(131.7499,324.4478)"><path
             d="M 0,0 V -19.625"
             style="fill:none;stroke:#e30613;stroke-width:2.55100012;stroke-linecap:round;stroke-linejoin:miter;stroke-miterlimit:10;stroke-dasharray:none;stroke-opacity:1"
             id="path414"
             inkscape:connector-curvature="0" /></g><g
           id="g416"
           transform="translate(130.4731,296.7129)"><path
             d="m 0,0 -0.015,9.527 h 12.032 c 0.557,-0.87 0.767,-1.107 1.027,-1.713 1.954,0 2.894,-0.133 2.894,-0.133 0.78,-0.439 1.237,-1.514 1.391,-3.185 C 17.231,2.624 16.765,1.598 15.923,1.439 L 13.048,1.324 12.029,-0.098 Z"
             style="fill:#e30613;fill-opacity:1;fill-rule:nonzero;stroke:none"
             id="path418"
             inkscape:connector-curvature="0" /></g><g
           id="g420"
           transform="translate(150.0053,299.729)"><path
             d="m 0,0 h -2.469 c -0.63,0 -1.14,0.511 -1.14,1.141 v 0.687 c 0,0.63 0.51,1.141 1.14,1.141 H 0 c 0.63,0 1.141,-0.511 1.141,-1.141 V 1.141 C 1.141,0.511 0.63,0 0,0"
             style="fill:#8a8b8b;fill-opacity:1;fill-rule:nonzero;stroke:none"
             id="path422"
             inkscape:connector-curvature="0" /></g><g
           id="g424"
           transform="translate(130.5097,328.374)"><path
             d="m 0,0 h -2.551 -69.75 -2.552 v -2.551 -63.375 -2.551 h 2.552 69.75 H 0 v 2.551 l 0,63.375 z m -2.551,-65.926 h -69.75 v 63.375 h 69.75 z"
             style="fill:#d5d6d6;fill-opacity:1;fill-rule:nonzero;stroke:none"
             id="path426"
             inkscape:connector-curvature="0" /></g><g
           id="g428"
           transform="matrix(0.88084729,0,0,1,177.06513,84.9897)"><path
             d="M -0.36486981,0 H -49.53659 c -0.840689,0 -1.52087,0.518 -1.52087,1.156 v 19.25 c 0,0.638 0.680181,1.156 1.52087,1.156 H -0.36486981 C 0.47581861,21.562 1.156,21.044 1.156,20.406 V 1.156 C 1.156,0.518 0.47581861,0 -0.36486981,0"
             style="fill:#d7d7d1;fill-opacity:1;fill-rule:nonzero;stroke:none;stroke-width:1.14700973"
             id="path430"
             inkscape:connector-curvature="0" /></g><g
           id="g432"
           transform="matrix(0.89256055,0,0,1,43.0929,84.9897)"><path
             d="m 0,0 h -41.813 c -0.638,0 -1.156,0.518 -1.156,1.156 v 19.25 c 0,0.638 0.518,1.156 1.156,1.156 H 0 c 0.639,0 1.156,-0.518 1.156,-1.156 V 1.156 C 1.156,0.518 0.639,0 0,0"
             style="fill:#d7d7d1;fill-opacity:1;fill-rule:nonzero;stroke:none"
             id="path434"
             inkscape:connector-curvature="0" /></g><g
           id="g436"
           transform="translate(139.5209,38.6563)"><path
             d="m 0,0 h -94.208 c -1.991,0 -3.605,1.614 -3.605,3.604 v 174.75 c 0,1.991 1.614,3.604 3.605,3.604 H 0 c 1.99,0 3.604,-1.613 3.604,-3.604 V 3.604 C 3.604,1.614 1.99,0 0,0"
             style="fill:#f3db17;fill-opacity:1;fill-rule:nonzero;stroke:none"
             id="path438"
             inkscape:connector-curvature="0" /></g><path
           d="m 56.933,320.598 h 72.301 V 261.172 H 56.933 Z"
           style="fill:#e5e4e2;fill-opacity:1;fill-rule:nonzero;stroke:none"
           id="path440"
           inkscape:connector-curvature="0" /><g
           id="g442"
           transform="translate(130.5097,321.874)"><path
             d="m 0,0 h -2.551 -69.75 -2.552 v -2.551 -56.875 -2.551 h 2.552 69.75 H 0 v 2.551 l 0,56.875 z m -2.551,-59.426 h -69.75 v 56.875 h 69.75 z"
             style="fill:#929497;fill-opacity:1;fill-rule:nonzero;stroke:none"
             id="path444"
             inkscape:connector-curvature="0" /></g><path
           d="m 56.933,324.723 h 72.301 V 307.047 H 56.933 Z"
           style="fill:#1d1d1b;fill-opacity:1;fill-rule:nonzero;stroke:none"
           id="path446"
           inkscape:connector-curvature="0" /><g
           id="g448"
           transform="translate(130.5097,325.999)"><path
             d="m 0,0 h -2.551 -69.75 -2.552 v -2.551 -15.125 -2.551 h 2.552 69.75 H 0 v 2.551 l 0,15.125 z m -2.551,-17.676 h -69.75 v 15.125 h 69.75 z"
             style="fill:#1d1d1b;fill-opacity:1;fill-rule:nonzero;stroke:none"
             id="path450"
             inkscape:connector-curvature="0" /></g><g
           id="g452"
           transform="translate(134.7919,264.6147)"><path
             d="m 0,0 h -83.552 c -2.393,0 -4.334,-1.94 -4.334,-4.333 v -37.792 c 0,-2.394 1.941,-4.333 4.334,-4.333 H 0 c 2.393,0 4.333,1.939 4.333,4.333 V -4.333 C 4.333,-1.94 2.393,0 0,0"
             style="fill:#f3db17;fill-opacity:1;fill-rule:nonzero;stroke:none"
             id="path454"
             inkscape:connector-curvature="0" /></g><g
           id="g456"
           transform="translate(42.1459,156.3647)"><path
             d="m 0,0 h -4.917 c -0.288,0 -0.52,0.233 -0.52,0.521 v 21.708 c 0,0.288 0.232,0.521 0.52,0.521 H 0 c 0.288,0 0.521,-0.233 0.521,-0.521 V 0.521 C 0.521,0.233 0.288,0 0,0"
             style="fill:#f3db17;fill-opacity:1;fill-rule:nonzero;stroke:none"
             id="path458"
             inkscape:connector-curvature="0" /></g><g
           id="g460"
           transform="translate(96.8647,16.4478)"><path
             d="m 0,0 h -8.896 c -0.639,0 -1.156,0.518 -1.156,1.156 v 21.938 c 0,0.638 0.517,1.156 1.156,1.156 H 0 c 0.639,0 1.156,-0.518 1.156,-1.156 V 1.156 C 1.156,0.518 0.639,0 0,0"
             style="fill:#f3db17;fill-opacity:1;fill-rule:nonzero;stroke:none"
             id="path462"
             inkscape:connector-curvature="0" /></g><g
           id="g464"
           transform="translate(142.7397,242.5728)"><path
             d="m 0,0 h -4.25 c -0.57,0 -1.031,0.462 -1.031,1.031 v 2.813 c 0,0.57 0.461,1.031 1.031,1.031 H 0 c 0.569,0 1.031,-0.461 1.031,-1.031 V 1.031 C 1.031,0.462 0.569,0 0,0"
             style="fill:#f3db17;fill-opacity:1;fill-rule:nonzero;stroke:none"
             id="path466"
             inkscape:connector-curvature="0" /></g><g
           id="g468"
           transform="translate(47.6562,242.5728)"><path
             d="m 0,0 h -4.25 c -0.569,0 -1.031,0.462 -1.031,1.031 v 2.813 c 0,0.57 0.462,1.031 1.031,1.031 H 0 c 0.57,0 1.031,-0.461 1.031,-1.031 V 1.031 C 1.031,0.462 0.57,0 0,0"
             style="fill:#f3db17;fill-opacity:1;fill-rule:nonzero;stroke:none"
             id="path470"
             inkscape:connector-curvature="0" /></g><g
           id="g472"
           transform="translate(139.5834,38.6563)"><path
             d="m 0,0 h -94.333 c -1.957,0 -3.542,1.585 -3.542,3.542 V 5.25 c 0,1.956 1.585,3.542 3.542,3.542 H 0 c 1.956,0 3.542,-1.586 3.542,-3.542 V 3.542 C 3.542,1.585 1.956,0 0,0"
             style="fill:#efc467;fill-opacity:1;fill-rule:nonzero;stroke:none"
             id="path474"
             inkscape:connector-curvature="0" /></g><g
           id="g476"
           transform="translate(111.3959,220.6147)"><path
             d="M 0,0 C 8.573,2.327 17.288,7.076 26.062,12.833 V 0 Z"
             style="fill:#efc467;fill-opacity:1;fill-rule:nonzero;stroke:none"
             id="path478"
             inkscape:connector-curvature="0" /></g><g
           id="g480"
           transform="translate(74.7499,220.6147)"><path
             d="M 0,0 C -8.573,2.327 -17.288,7.076 -26.062,12.833 V 0 Z"
             style="fill:#efc467;fill-opacity:1;fill-rule:nonzero;stroke:none"
             id="path482"
             inkscape:connector-curvature="0" /></g><g
           id="g484"
           transform="translate(95.0126,330.4478)"><path
             d="m 0,0 h -2.896 c -0.459,0 -0.833,0.373 -0.833,0.833 v 6.762 c 0,0.46 0.374,0.833 0.833,0.833 H 0 c 0.46,0 0.833,-0.373 0.833,-0.833 V 0.833 C 0.833,0.373 0.46,0 0,0"
             style="fill:#d5d7d7;fill-opacity:1;fill-rule:nonzero;stroke:none"
             id="path486"
             inkscape:connector-curvature="0" /></g><g
           id="g488"
           transform="translate(92.7318,330.4478)"><path
             d="m 0,0 h -2.896 c -0.46,0 -0.833,0.373 -0.833,0.833 v 6.762 c 0,0.46 0.373,0.833 0.833,0.833 H 0 c 0.46,0 0.833,-0.373 0.833,-0.833 V 0.833 C 0.833,0.373 0.46,0 0,0"
             style="fill:#96999a;fill-opacity:1;fill-rule:nonzero;stroke:none"
             id="path490"
             inkscape:connector-curvature="0" /></g><path
           d="m 93.716,331.01 h -3.341 v 7.866 h 3.341 z"
           style="fill:#a6a8ab;fill-opacity:1;fill-rule:nonzero;stroke:none"
           id="path492"
           inkscape:connector-curvature="0" /><g
           id="g494"
           transform="translate(102.893,332.9478)"><path
             d="m 0,0 h -20.937 c -0.605,0 -1.094,-0.49 -1.094,-1.094 v -1.5 c 0,-0.604 0.489,-1.094 1.094,-1.094 H 0 c 0.604,0 1.094,0.49 1.094,1.094 v 1.5 C 1.094,-0.49 0.604,0 0,0"
             style="fill:#484547;fill-opacity:1;fill-rule:nonzero;stroke:none"
             id="path496"
             inkscape:connector-curvature="0" /></g><path
           d="M 103.987,331.448 H 80.862 v -4.375 h 23.125 z"
           style="fill:#d5d6d6;fill-opacity:1;fill-rule:nonzero;stroke:none"
           id="path498"
           inkscape:connector-curvature="0" /><path
           d="m 141.04,296.626 h -1.249 v 9.613 h 1.249 z"
           style="fill:#ffffff;fill-opacity:1;fill-rule:nonzero;stroke:none"
           id="path500"
           inkscape:connector-curvature="0" /><path
           d="m 141.665,280.496 h -1.249 v 9.613 h 1.249 z"
           style="fill:#ffffff;fill-opacity:1;fill-rule:nonzero;stroke:none"
           id="path502"
           inkscape:connector-curvature="0" /><path
           d="M 143.125,47.448 H 41.708 v -4.396 h 101.417 z"
           style="fill:#efc467;fill-opacity:1;fill-rule:nonzero;stroke:none"
           id="path504"
           inkscape:connector-curvature="0" /><rect
           style="fill:#ffffff;fill-opacity:1;stroke:none;stroke-width:1;stroke-miterlimit:4;stroke-dasharray:none;stroke-opacity:1"
           id="rect510"
           width="7.4872842"
           height="20.491528"
           x="199.23334"
           y="85.118645" /></g></g></g></svg>