<?xml version="1.0" encoding="UTF-8" standalone="no"?>
<!-- Created with Inkscape (http://www.inkscape.org/) -->

<svg
   xmlns:dc="http://purl.org/dc/elements/1.1/"
   xmlns:cc="http://creativecommons.org/ns#"
   xmlns:rdf="http://www.w3.org/1999/02/22-rdf-syntax-ns#"
   xmlns:svg="http://www.w3.org/2000/svg"
   xmlns="http://www.w3.org/2000/svg"
   xmlns:sodipodi="http://sodipodi.sourceforge.net/DTD/sodipodi-0.dtd"
   xmlns:inkscape="http://www.inkscape.org/namespaces/inkscape"
   version="1.1"
   id="svg10"
   xml:space="preserve"
   width="200.66667"
   height="243.21733"
   viewBox="0 0 200.66667 243.21733"
   sodipodi:docname="potenciometro vista posterior.svg"
   inkscape:version="0.92.2 (5c3e80d, 2017-08-06)"><metadata
     id="metadata16"><rdf:RDF><cc:Work
         rdf:about=""><dc:format>image/svg+xml</dc:format><dc:type
           rdf:resource="http://purl.org/dc/dcmitype/StillImage" /><dc:title></dc:title></cc:Work></rdf:RDF></metadata><defs
     id="defs14"><clipPath
       clipPathUnits="userSpaceOnUse"
       id="clipPath26"><path
         d="M 0,182.413 H 150.5 V 0 H 0 Z"
         id="path24"
         inkscape:connector-curvature="0" /></clipPath></defs><sodipodi:namedview
     pagecolor="#ffffff"
     bordercolor="#666666"
     borderopacity="1"
     objecttolerance="10"
     gridtolerance="10"
     guidetolerance="10"
     inkscape:pageopacity="0"
     inkscape:pageshadow="2"
     inkscape:window-width="958"
     inkscape:window-height="1008"
     id="namedview12"
     showgrid="false"
     inkscape:zoom="1.7247949"
     inkscape:cx="208.1326"
     inkscape:cy="121.68187"
     inkscape:window-x="-7"
     inkscape:window-y="0"
     inkscape:window-maximized="0"
     inkscape:current-layer="g18" /><g
     id="g18"
     inkscape:groupmode="layer"
     inkscape:label="potenciometro vista posterior"
     transform="matrix(1.3333333,0,0,-1.3333333,0,243.21733)"><g
       id="g20"
       transform="matrix(0.5,0,0,0.5,1.3749657,0.86966904)"><g
         id="g22"
         clip-path="url(#clipPath26)"><g
           id="g28"
           transform="translate(140.0869,-1e-4)"><path
             d="m 0,0 h -132.935 c -1.951,0 -3.532,1.582 -3.532,3.533 v 57.282 c 0,1.951 1.581,3.533 3.532,3.533 H 0 c 1.951,0 3.533,-1.582 3.533,-3.533 V 3.533 C 3.533,1.582 1.951,0 0,0"
             style="fill:#795649;fill-opacity:1;fill-rule:nonzero;stroke:none"
             id="path30"
             inkscape:connector-curvature="0" /></g><g
           id="g32"
           transform="translate(74.6196,43.9892)"><path
             d="M 0,0 C -7.684,0 -13.913,-4.558 -13.913,-10.18 V -43.989 H 13.913 V -10.18 C 13.913,-4.558 7.684,0 0,0"
             style="fill:#bebebf;fill-opacity:1;fill-rule:nonzero;stroke:none"
             id="path34"
             inkscape:connector-curvature="0" /></g><g
           id="g36"
           transform="translate(79.9946,33.538)"><path
             d="m 0,0 c 0,-2.969 -2.407,-5.375 -5.375,-5.375 -2.969,0 -5.375,2.406 -5.375,5.375 0,2.969 2.406,5.375 5.375,5.375 C -2.407,5.375 0,2.969 0,0"
             style="fill:#1e0c0c;fill-opacity:1;fill-rule:nonzero;stroke:none"
             id="path38"
             inkscape:connector-curvature="0" /></g><path
           d="M 80.385,10.413 H 68.854 v 8.5 h 11.531 z"
           style="fill:#1e0c0c;fill-opacity:1;fill-rule:nonzero;stroke:none"
           id="path40"
           inkscape:connector-curvature="0" /><g
           id="g42"
           transform="translate(118.6196,43.9892)"><path
             d="M 0,0 C -7.684,0 -13.913,-4.558 -13.913,-10.18 V -43.989 H 13.913 V -10.18 C 13.913,-4.558 7.684,0 0,0"
             style="fill:#bebebf;fill-opacity:1;fill-rule:nonzero;stroke:none"
             id="path44"
             inkscape:connector-curvature="0" /></g><g
           id="g46"
           transform="translate(123.9946,33.538)"><path
             d="m 0,0 c 0,-2.969 -2.407,-5.375 -5.375,-5.375 -2.969,0 -5.375,2.406 -5.375,5.375 0,2.969 2.406,5.375 5.375,5.375 C -2.407,5.375 0,2.969 0,0"
             style="fill:#1e0c0c;fill-opacity:1;fill-rule:nonzero;stroke:none"
             id="path48"
             inkscape:connector-curvature="0" /></g><path
           d="m 124.385,10.413 h -11.531 v 8.5 h 11.531 z"
           style="fill:#1e0c0c;fill-opacity:1;fill-rule:nonzero;stroke:none"
           id="path50"
           inkscape:connector-curvature="0" /><g
           id="g52"
           transform="translate(30.6196,43.9892)"><path
             d="M 0,0 C -7.684,0 -13.913,-4.558 -13.913,-10.18 V -43.989 H 13.913 V -10.18 C 13.913,-4.558 7.684,0 0,0"
             style="fill:#bebebf;fill-opacity:1;fill-rule:nonzero;stroke:none"
             id="path54"
             inkscape:connector-curvature="0" /></g><g
           id="g56"
           transform="translate(35.9946,33.538)"><path
             d="m 0,0 c 0,-2.969 -2.407,-5.375 -5.375,-5.375 -2.969,0 -5.375,2.406 -5.375,5.375 0,2.969 2.406,5.375 5.375,5.375 C -2.407,5.375 0,2.969 0,0"
             style="fill:#1e0c0c;fill-opacity:1;fill-rule:nonzero;stroke:none"
             id="path58"
             inkscape:connector-curvature="0" /></g><path
           d="M 36.385,10.413 H 24.854 v 8.5 h 11.531 z"
           style="fill:#1e0c0c;fill-opacity:1;fill-rule:nonzero;stroke:none"
           id="path60"
           inkscape:connector-curvature="0" /><g
           id="g62"
           transform="translate(143.6196,106.5219)"><path
             d="m 0,0 c 0,-38.66 -31.34,-70 -70,-70 -38.66,0 -70,31.34 -70,70 0,38.66 31.34,70 70,70 C -31.34,70 0,38.66 0,0"
             style="fill:#bebebf;fill-opacity:1;fill-rule:nonzero;stroke:none"
             id="path64"
             inkscape:connector-curvature="0" /></g></g></g></g></svg>